<mxfile host="Electron" modified="2024-04-22T11:18:33.606Z" agent="Mozilla/5.0 (Windows NT 10.0; Win64; x64) AppleWebKit/537.36 (KHTML, like Gecko) draw.io/24.1.0 Chrome/120.0.6099.109 Electron/28.1.0 Safari/537.36" etag="LFsNWB6UqiB4dU4E1Sfj" version="24.1.0" type="device">
  <diagram name="Seite-1" id="upgf_Pp-q04tqKW2HZjB">
    <mxGraphModel dx="1687" dy="993" grid="1" gridSize="10" guides="1" tooltips="1" connect="1" arrows="1" fold="1" page="1" pageScale="1" pageWidth="827" pageHeight="1169" math="0" shadow="0">
      <root>
        <mxCell id="0" />
        <mxCell id="1" parent="0" />
        <mxCell id="q6EzGPvPXAMYsEKKV4Jr-1" value="CRM" style="whiteSpace=wrap;html=1;aspect=fixed;fontSize=24;" parent="1" vertex="1">
          <mxGeometry x="350" y="220" width="80" height="80" as="geometry" />
        </mxCell>
        <mxCell id="RE64JoOv-2mhofRoT3Sg-1" value="Kundendaten" style="whiteSpace=wrap;html=1;aspect=fixed;" vertex="1" parent="1">
          <mxGeometry x="90" y="10" width="110" height="110" as="geometry" />
        </mxCell>
        <mxCell id="RE64JoOv-2mhofRoT3Sg-2" value="Buchhaltung" style="whiteSpace=wrap;html=1;aspect=fixed;" vertex="1" parent="1">
          <mxGeometry x="335" y="10" width="110" height="110" as="geometry" />
        </mxCell>
        <mxCell id="RE64JoOv-2mhofRoT3Sg-3" value="Warendaten" style="whiteSpace=wrap;html=1;aspect=fixed;" vertex="1" parent="1">
          <mxGeometry x="580" y="10" width="110" height="110" as="geometry" />
        </mxCell>
        <mxCell id="RE64JoOv-2mhofRoT3Sg-4" value="" style="endArrow=classic;html=1;rounded=0;" edge="1" parent="1">
          <mxGeometry width="50" height="50" relative="1" as="geometry">
            <mxPoint x="389.5" y="210" as="sourcePoint" />
            <mxPoint x="389.5" y="140" as="targetPoint" />
          </mxGeometry>
        </mxCell>
        <mxCell id="RE64JoOv-2mhofRoT3Sg-5" value="" style="endArrow=classic;html=1;rounded=0;" edge="1" parent="1">
          <mxGeometry width="50" height="50" relative="1" as="geometry">
            <mxPoint x="320" y="240" as="sourcePoint" />
            <mxPoint x="210" y="130" as="targetPoint" />
          </mxGeometry>
        </mxCell>
        <mxCell id="RE64JoOv-2mhofRoT3Sg-8" value="" style="endArrow=classic;html=1;rounded=0;" edge="1" parent="1">
          <mxGeometry width="50" height="50" relative="1" as="geometry">
            <mxPoint x="500" y="220" as="sourcePoint" />
            <mxPoint x="580" y="130" as="targetPoint" />
          </mxGeometry>
        </mxCell>
        <mxCell id="RE64JoOv-2mhofRoT3Sg-9" value="Actor" style="shape=umlActor;verticalLabelPosition=bottom;verticalAlign=top;html=1;outlineConnect=0;" vertex="1" parent="1">
          <mxGeometry x="30" y="770" width="30" height="60" as="geometry" />
        </mxCell>
        <mxCell id="RE64JoOv-2mhofRoT3Sg-10" value="" style="endArrow=classic;html=1;rounded=0;" edge="1" parent="1">
          <mxGeometry width="50" height="50" relative="1" as="geometry">
            <mxPoint x="100" y="790" as="sourcePoint" />
            <mxPoint x="130" y="790" as="targetPoint" />
          </mxGeometry>
        </mxCell>
        <mxCell id="RE64JoOv-2mhofRoT3Sg-11" value="Username&lt;div&gt;Passwort&lt;/div&gt;" style="rounded=0;whiteSpace=wrap;html=1;" vertex="1" parent="1">
          <mxGeometry x="140" y="760" width="120" height="60" as="geometry" />
        </mxCell>
        <mxCell id="RE64JoOv-2mhofRoT3Sg-12" value="Übersicht der&lt;div&gt;letzten bearbeitung&lt;/div&gt;" style="whiteSpace=wrap;html=1;aspect=fixed;" vertex="1" parent="1">
          <mxGeometry x="300" y="750" width="80" height="80" as="geometry" />
        </mxCell>
        <mxCell id="RE64JoOv-2mhofRoT3Sg-13" value="weiterleitung zu allen&amp;nbsp;&lt;div&gt;großbereichen der CRM&lt;/div&gt;" style="whiteSpace=wrap;html=1;aspect=fixed;" vertex="1" parent="1">
          <mxGeometry x="300" y="880" width="80" height="80" as="geometry" />
        </mxCell>
        <mxCell id="RE64JoOv-2mhofRoT3Sg-14" value="" style="endArrow=classic;startArrow=classic;html=1;rounded=0;exitX=0.888;exitY=-0.025;exitDx=0;exitDy=0;exitPerimeter=0;" edge="1" parent="1" source="RE64JoOv-2mhofRoT3Sg-13">
          <mxGeometry width="50" height="50" relative="1" as="geometry">
            <mxPoint x="370" y="870" as="sourcePoint" />
            <mxPoint x="370" y="830" as="targetPoint" />
          </mxGeometry>
        </mxCell>
        <mxCell id="RE64JoOv-2mhofRoT3Sg-17" value="gleiche Seite" style="whiteSpace=wrap;html=1;aspect=fixed;" vertex="1" parent="1">
          <mxGeometry x="310" y="840" width="40" height="40" as="geometry" />
        </mxCell>
        <mxCell id="RE64JoOv-2mhofRoT3Sg-18" value="" style="shape=flexArrow;endArrow=classic;html=1;rounded=0;" edge="1" parent="1">
          <mxGeometry width="50" height="50" relative="1" as="geometry">
            <mxPoint x="190" y="760" as="sourcePoint" />
            <mxPoint x="230" y="740" as="targetPoint" />
          </mxGeometry>
        </mxCell>
        <mxCell id="RE64JoOv-2mhofRoT3Sg-19" value="" style="shape=flexArrow;endArrow=classic;html=1;rounded=0;entryX=0.35;entryY=0.013;entryDx=0;entryDy=0;entryPerimeter=0;" edge="1" parent="1">
          <mxGeometry width="50" height="50" relative="1" as="geometry">
            <mxPoint x="316" y="728.96" as="sourcePoint" />
            <mxPoint x="344" y="750" as="targetPoint" />
          </mxGeometry>
        </mxCell>
        <mxCell id="RE64JoOv-2mhofRoT3Sg-20" value="Neues Fenster" style="whiteSpace=wrap;html=1;aspect=fixed;" vertex="1" parent="1">
          <mxGeometry x="250" y="680" width="50" height="50" as="geometry" />
        </mxCell>
        <mxCell id="RE64JoOv-2mhofRoT3Sg-21" value="" style="endArrow=classic;html=1;rounded=0;" edge="1" parent="1">
          <mxGeometry width="50" height="50" relative="1" as="geometry">
            <mxPoint x="140" y="130" as="sourcePoint" />
            <mxPoint x="140" y="420" as="targetPoint" />
          </mxGeometry>
        </mxCell>
        <mxCell id="RE64JoOv-2mhofRoT3Sg-24" style="edgeStyle=orthogonalEdgeStyle;rounded=0;orthogonalLoop=1;jettySize=auto;html=1;" edge="1" parent="1" source="RE64JoOv-2mhofRoT3Sg-22">
          <mxGeometry relative="1" as="geometry">
            <mxPoint x="140" y="560" as="targetPoint" />
          </mxGeometry>
        </mxCell>
        <mxCell id="RE64JoOv-2mhofRoT3Sg-22" value="Neue Kunden einfügen&amp;nbsp;&lt;div&gt;-&amp;gt;&lt;/div&gt;&lt;div&gt;neues Fenster öffnen&lt;/div&gt;" style="whiteSpace=wrap;html=1;aspect=fixed;" vertex="1" parent="1">
          <mxGeometry x="100" y="440" width="80" height="80" as="geometry" />
        </mxCell>
        <mxCell id="RE64JoOv-2mhofRoT3Sg-25" value="&quot;Kunde hinzufügen&quot;&lt;div&gt;-&amp;gt; Fenster schließt sich&lt;/div&gt;&lt;div&gt;&lt;br&gt;&lt;/div&gt;" style="whiteSpace=wrap;html=1;aspect=fixed;" vertex="1" parent="1">
          <mxGeometry x="100" y="560" width="80" height="80" as="geometry" />
        </mxCell>
        <mxCell id="RE64JoOv-2mhofRoT3Sg-26" value="" style="shape=flexArrow;endArrow=classic;html=1;rounded=0;" edge="1" parent="1">
          <mxGeometry width="50" height="50" relative="1" as="geometry">
            <mxPoint x="190" y="470" as="sourcePoint" />
            <mxPoint x="220" y="510" as="targetPoint" />
          </mxGeometry>
        </mxCell>
        <mxCell id="RE64JoOv-2mhofRoT3Sg-27" value="" style="shape=flexArrow;endArrow=classic;html=1;rounded=0;" edge="1" parent="1">
          <mxGeometry width="50" height="50" relative="1" as="geometry">
            <mxPoint x="190" y="610" as="sourcePoint" />
            <mxPoint x="210" y="580" as="targetPoint" />
          </mxGeometry>
        </mxCell>
        <mxCell id="RE64JoOv-2mhofRoT3Sg-28" value="neues fenster" style="whiteSpace=wrap;html=1;aspect=fixed;" vertex="1" parent="1">
          <mxGeometry x="195" y="520" width="55" height="55" as="geometry" />
        </mxCell>
      </root>
    </mxGraphModel>
  </diagram>
</mxfile>
